<?xml version="1.0" encoding="UTF-8"?>
<svg id="símbolos" xmlns="http://www.w3.org/2000/svg" viewBox="0 0 360.74 361.18">
  <defs>
    <style>
      .cls-1 {
        fill: #fff;
        stroke-width: 0px;
      }
    </style>
  </defs>
  <g id="primária">
    <path class="cls-1" d="m167.13,295.09c37.35,12.49,92.09-.96,102.46-43.48,6.68-28.82-9.88-55.83-36.74-66.57-19.08-8.19-40.19-8.36-60.45-6.34-11.81,1.09-23.44,3.7-34.66,7.55,3.23-6.1,6.84-11.31,11.63-15.81,4.13-4.13,9.54-9.08,15.27-13.23,13.64,10.93,39.77,6.27,36.08-15.14-1.57-7.56-9.54-12.1-16.79-11.93-3.87.14-7.62.82-11.25,1.93.05-1.94.26-3.93.54-5.87.34-1.43.75-2.9,1.18-4.37,32.73-.71,74.63-4.75,96.77-20.85,11.94-8.39,13.17-26.43,4.2-37.46-8.87-11.03-23.64-14.34-37.12-14.55-38.09.41-66.81,28.05-78.81,62.46-1.68.04-3.37.08-5.04.11-28.05.74-57.19,5.42-79.94,23.52-21.81,17.82-31.81,56.71-4.23,73.97,0,0,1.03-1.57,1.03-1.57-17.44-12.71-16.48-35.57-5.39-52.29,18.08-28.79,56.99-33.39,88.25-33.26.7,0,1.43.02,2.15.02-1.39,6.1-1.87,12.63-.77,18.75-8.51,5.85-16.15,13.32-22.95,20.26-8.82,9.86-15.12,22.83-19,35.81-23.1,12.56-47.49,31.89-50.13,59.97-1.99,21.38,11.71,40.72,30.84,49.22,6.18,2.95,12.65,5.16,19.44,6.43,0,0,.29-1.85.29-1.85-24.65-6.46-47.35-26.25-43.39-53.26,3-21.48,21.3-36.73,40.01-47.25-4.91,37.62,19.32,73.92,56.49,85.08Zm18.09-197.84c11.27-19.08,31.28-31.73,53.24-32.5,11.58-.21,28.8,3.19,28.41,17.21-.33,4.15-1.23,5.28-4.33,8.14-3.39,2.88-8.45,5.52-13.91,7.62-22.18,7.9-46.29,11.4-70.2,12.9,1.98-4.69,4.27-9.26,6.79-13.37Zm-11.54,93.7c17.83-1.17,37.98-.42,53.57,6.96,9.52,4.58,18.63,11.05,23.49,20.75,9.67,18.21,4.13,41.65-13.7,52.57-54.63,33.15-124.85-11.18-105.32-71.11,13.48-5.13,27.53-8.35,41.96-9.18Z"/>
    <path class="cls-1" d="m142.42,39.98c26.75-7.75,55.79-7.77,83-.15-40.15-14.64-87.16-9.82-123.56,12.74C38.92,88.74,12.08,174.5,44.6,239.74,11.52,159.37,58.12,62.22,142.42,39.98Z"/>
    <path class="cls-1" d="m299.69,93.51c55.2,78.45,19.24,193.53-71.73,224.82-28.59,10.41-60.28,11.82-89.83,4.15,29.13,9.84,61.69,9.5,91.18-.25,94.33-29.98,132.51-151.01,70.38-228.72Z"/>
  </g>
</svg>