<?xml version="1.0" encoding="UTF-8"?>
<svg id="horizontais" xmlns="http://www.w3.org/2000/svg" viewBox="0 0 890.22 248.29">
  <defs>
    <style>
      .cls-1 {
        fill: #f8f0ca;
      }

      .cls-1, .cls-2 {
        stroke-width: 0px;
      }

      .cls-2 {
        fill: #e9e7ea;
      }
    </style>
  </defs>
  <g>
    <g>
      <path class="cls-1" d="m470.1,167.35c18.9,6.32,46.59-.49,51.84-22,3.38-14.58-5-28.25-18.59-33.68-9.66-4.14-20.34-4.23-30.58-3.21-5.97.55-11.86,1.87-17.54,3.82,1.63-3.09,3.46-5.72,5.89-8,2.09-2.09,4.83-4.59,7.73-6.69,6.9,5.53,20.12,3.17,18.26-7.66-.79-3.83-4.83-6.12-8.5-6.03-1.96.07-3.86.41-5.69.97.03-.98.13-1.99.27-2.97.17-.72.38-1.47.6-2.21,16.56-.36,37.76-2.4,48.96-10.55,6.04-4.24,6.66-13.37,2.13-18.95-4.49-5.58-11.96-7.25-18.78-7.36-19.27.21-33.8,14.19-39.87,31.6-.85.02-1.7.04-2.55.06-14.19.37-28.94,2.74-40.45,11.9-11.03,9.02-16.09,28.69-2.14,37.42,0,0,.52-.79.52-.79-8.82-6.43-8.34-18-2.73-26.46,9.15-14.57,28.83-16.89,44.65-16.83.35,0,.72,0,1.09.01-.7,3.09-.95,6.39-.39,9.49-4.3,2.96-8.17,6.74-11.61,10.25-4.46,4.99-7.65,11.55-9.61,18.12-11.69,6.36-24.03,16.13-25.36,30.34-1.01,10.82,5.92,20.6,15.6,24.91,3.13,1.49,6.4,2.61,9.84,3.25,0,0,.15-.94.15-.94-12.47-3.27-23.96-13.28-21.95-26.95,1.52-10.87,10.78-18.58,20.24-23.9-2.48,19.04,9.78,37.4,28.58,43.05Zm9.15-100.1c5.7-9.66,15.83-16.05,26.94-16.44,5.86-.11,14.57,1.61,14.37,8.71-.17,2.1-.62,2.67-2.19,4.12-1.72,1.46-4.28,2.79-7.04,3.85-11.22,4-23.42,5.77-35.52,6.53,1-2.37,2.16-4.69,3.43-6.76Zm-5.84,47.41c9.02-.59,19.22-.21,27.1,3.52,4.82,2.32,9.43,5.59,11.88,10.5,4.89,9.21,2.09,21.07-6.93,26.6-27.64,16.77-63.17-5.66-53.29-35.98,6.82-2.6,13.93-4.23,21.23-4.64Z"/>
      <path class="cls-1" d="m457.59,38.27c13.54-3.92,28.23-3.93,41.99-.08-20.32-7.41-44.1-4.97-62.51,6.45-31.84,18.3-45.42,61.69-28.97,94.7-16.74-40.66,6.84-89.82,49.49-101.07Z"/>
      <path class="cls-1" d="m537.17,65.35c27.93,39.69,9.74,97.92-36.29,113.75-14.47,5.27-30.5,5.98-45.45,2.1,14.74,4.98,31.21,4.81,46.13-.13,47.73-15.17,67.04-76.4,35.61-115.72Z"/>
    </g>
    <g>
      <g>
        <path class="cls-2" d="m59.23,137.79c-5.55,0-9.74-1.49-12.55-4.46s-4.18-6.94-4.12-11.91l.29-27.05h-8.63v-6.08h8.72l.1-10.19h7.15l-.1,10.19h16.96v6.08h-17.06l-.29,26.56c0,3.14.8,5.65,2.4,7.55,1.6,1.9,4.1,2.84,7.5,2.84,1.51,0,2.91-.18,4.22-.54,1.31-.36,2.68-1.09,4.12-2.2l2.35,5.69c-1.44,1.24-3.14,2.14-5.1,2.7-1.96.55-3.96.83-5.98.83Z"/>
        <path class="cls-2" d="m96.77,137.79c-7.51,0-13.41-2.16-17.69-6.47-4.28-4.31-6.42-10.32-6.42-18.03,0-5.03,1.01-9.51,3.04-13.43,2.03-3.92,4.79-6.97,8.29-9.16,3.49-2.19,7.46-3.28,11.91-3.28,6.67,0,11.81,2.32,15.44,6.96h0c6.55,8.48.49,21.29-10.2,20.78-2.7-.13-6.27-.88-10.38-.88-3.85,0-10.73.88-10.73.88.2,5.23,1.78,9.21,4.75,11.96,2.97,2.74,7.14,4.12,12.5,4.12,2.62,0,5.13-.57,7.55-1.72,2.42-1.14,4.47-2.92,6.17-5.34l4.51,4.12c-4.38,6.34-10.62,9.51-18.72,9.51Zm-.78-44.6c-3.01,0-5.64.72-7.89,2.16-2.26,1.44-4.07,3.38-5.44,5.83-1.37,2.45-2.22,5.18-2.55,8.19,0,0,6.23-.88,10.64-.88s7.09.74,9.6.88c6.42.37,9.71-7.72,5.25-12.35h0c-2.48-2.55-5.68-3.82-9.6-3.82Z"/>
        <path class="cls-2" d="m168.03,88.29v48.72h-7.25l.29-11.47c-1.83,3.79-4.28,6.78-7.35,8.97-3.08,2.19-6.57,3.28-10.49,3.28s-7.58-.96-10.39-2.89c-2.81-1.93-4.96-4.61-6.47-8.04-1.5-3.43-2.25-7.4-2.25-11.91,0-5.42.98-10.21,2.94-14.36,1.96-4.15,4.7-7.39,8.23-9.71,3.53-2.32,7.61-3.48,12.25-3.48,3.27,0,6.15.75,8.63,2.25,2.48,1.51,4.31,3.43,5.49,5.78l.98-7.16h5.39Zm-20.29,5.59c-4.9,0-8.83,1.86-11.76,5.59-2.94,3.73-4.42,8.69-4.42,14.9,0,5.29,1.13,9.43,3.38,12.4,2.26,2.97,5.34,4.46,9.27,4.46,3.2,0,6.08-.95,8.63-2.84,2.55-1.9,4.54-4.51,5.98-7.84,1.44-3.33,2.15-7.16,2.15-11.47,0-4.71-1.17-8.41-3.53-11.13-2.35-2.71-5.58-4.07-9.7-4.07Z"/>
        <path class="cls-2" d="m202.44,137.79c-7.12,0-12.71-2.14-16.76-6.42-4.05-4.28-6.08-10.25-6.08-17.89,0-5.16,1.01-9.7,3.04-13.62,2.03-3.92,4.84-6.97,8.43-9.16,3.59-2.19,7.78-3.28,12.55-3.28,7.84,0,13.59,3.14,17.26,9.41l-5.49,4.12c-2.61-4.64-6.6-6.96-11.95-6.96-4.9,0-8.84,1.78-11.81,5.34-2.97,3.56-4.46,8.28-4.46,14.16s1.34,10.13,4.02,13.14c2.67,3.01,6.53,4.51,11.56,4.51,2.68,0,5.13-.56,7.35-1.67s4.05-2.87,5.49-5.29l5.3,4.12c-3.92,6.34-10.06,9.51-18.43,9.51Z"/>
        <path class="cls-2" d="m228.5,137.01v-72.53h7.15l.1,23.82-.59,16.66c1.63-5.69,4.17-10.03,7.6-13.04,3.43-3.01,7.47-4.51,12.11-4.51,4.96,0,8.79,1.73,11.47,5.19,2.68,3.47,4.02,8.46,4.02,15l-.2,29.41h-7.15l.19-28.52c0-4.77-.8-8.36-2.4-10.78-1.6-2.42-4.17-3.62-7.7-3.62-3.33,0-6.32,1.32-8.97,3.97-2.65,2.65-4.74,7.11-6.27,13.38-1.54,6.27-2.3,14.8-2.3,25.58h-7.06Z"/>
        <path class="cls-2" d="m305.44,137.79c-7.51,0-13.41-2.16-17.69-6.47-4.28-4.31-6.42-10.32-6.42-18.03,0-5.03,1.01-9.51,3.04-13.43s4.79-6.97,8.29-9.16c3.49-2.19,7.46-3.28,11.91-3.28,6.67,0,11.81,2.32,15.44,6.96h0c6.55,8.48.49,21.29-10.2,20.78-2.7-.13-6.27-.88-10.38-.88-3.85,0-10.73.88-10.73.88.2,5.23,1.78,9.21,4.75,11.96,2.97,2.74,7.14,4.12,12.5,4.12,2.62,0,5.13-.57,7.55-1.72,2.42-1.14,4.47-2.92,6.17-5.34l4.51,4.12c-4.38,6.34-10.62,9.51-18.72,9.51Zm-.78-44.6c-3.01,0-5.64.72-7.89,2.16-2.26,1.44-4.07,3.38-5.44,5.83s-2.22,5.18-2.55,8.19c0,0,6.23-.88,10.64-.88s7.09.74,9.6.88c6.42.37,9.71-7.72,5.25-12.35h0c-2.48-2.55-5.68-3.82-9.6-3.82Z"/>
        <path class="cls-2" d="m362.59,95.05c-.66-.2-1.31-.33-1.97-.39-.65-.06-1.37-.1-2.16-.1-5.68,0-9.83,3.35-12.44,10.05-2.62,6.7-3.92,17.5-3.92,32.4h-7.06v-31.27l-.1-17.45h7.15l-.49,17.35c1.57-6.6,3.92-11.29,7.06-14.07,3.14-2.78,6.5-4.16,10.1-4.16,1.05,0,1.98.05,2.8.15.82.1,1.52.28,2.11.54l-1.07,6.96Z"/>
      </g>
      <g>
        <path class="cls-2" d="m659.07,137.79c-6.08,0-10.78-1.26-14.11-3.78-3.33-2.51-5.26-6.09-5.79-10.73l6.28-1.47c.46,3.47,1.78,6.01,3.97,7.65,2.19,1.63,5.41,2.45,9.66,2.45,3.59,0,6.32-.74,8.19-2.21,1.86-1.47,2.79-3.38,2.79-5.74,0-2.22-.95-3.87-2.84-4.95-1.9-1.08-4.87-2.01-8.92-2.79-3.4-.65-6.31-1.49-8.72-2.5-2.42-1.01-4.28-2.43-5.59-4.26-1.31-1.83-1.96-4.28-1.96-7.35,0-2.75.75-5.23,2.25-7.45,1.5-2.22,3.58-3.97,6.23-5.25,2.65-1.27,5.64-1.91,8.97-1.91,4.58,0,8.32,1.1,11.23,3.28,2.91,2.19,4.69,5.21,5.34,9.07l-6.08,1.57c-.98-5.36-4.51-8.04-10.59-8.04-3.14,0-5.64.77-7.5,2.3-1.86,1.54-2.79,3.61-2.79,6.22,0,2.16.82,3.87,2.45,5.15,1.63,1.28,4.57,2.37,8.82,3.29,3.46.72,6.44,1.55,8.92,2.5,2.48.95,4.4,2.24,5.74,3.87,1.34,1.63,2.04,3.89,2.11,6.76,0,2.75-.75,5.2-2.25,7.35-1.5,2.16-3.61,3.86-6.33,5.1-2.71,1.24-5.87,1.86-9.46,1.86Z"/>
        <path class="cls-2" d="m758.66,92.6c-2.68-3.46-6.51-5.19-11.47-5.19-4.64,0-8.67,1.5-12.1,4.51-3.43,3.01-5.97,7.35-7.6,13.04l.59-16.66-.1-23.82h-7.16v66.85h-16.17c-3.4,0-5.9-.95-7.5-2.84s-2.4-4.41-2.4-7.55l.29-26.56h17.05v-6.08h-16.95l.1-10.19h-7.16l-.1,10.19h-8.73v6.08h8.63l-.29,27.05c-.07,4.97,1.31,8.94,4.12,11.91,2.81,2.97,6.99,4.46,12.54,4.46h23.62c0-10.78.77-20.09,2.3-26.37,1.54-6.27,3.63-10.73,6.27-13.38,2.65-2.65,5.64-3.97,8.97-3.97,3.53,0,6.09,1.21,7.69,3.63,1.6,2.42,2.4,6.01,2.4,10.78l-.2,45.87h7.16l.2-46.75c0-6.53-1.34-11.53-4.02-15Z"/>
        <path class="cls-2" d="m797.76,137.79c-7.51,0-13.41-2.16-17.69-6.47-4.28-4.31-6.42-10.32-6.42-18.03,0-5.03,1.01-9.51,3.04-13.43,2.03-3.92,4.79-6.97,8.29-9.16,3.49-2.19,7.46-3.28,11.91-3.28,6.67,0,11.81,2.32,15.44,6.96h0c6.55,8.48.49,21.29-10.21,20.78-2.7-.13-6.27-.88-10.38-.88-3.85,0-10.73.88-10.73.88.2,5.23,1.78,9.21,4.75,11.96,2.98,2.74,7.14,4.12,12.5,4.12,2.62,0,5.13-.57,7.55-1.72,2.42-1.14,4.47-2.92,6.17-5.34l4.51,4.12c-4.38,6.34-10.62,9.51-18.72,9.51Zm-.78-44.6c-3.01,0-5.64.72-7.89,2.16-2.26,1.44-4.07,3.38-5.44,5.83s-2.22,5.18-2.55,8.19c0,0,6.23-.88,10.64-.88s7.09.74,9.6.88c6.42.37,9.71-7.72,5.25-12.35h0c-2.48-2.55-5.68-3.82-9.6-3.82Z"/>
        <path class="cls-2" d="m613.88,137.79c-7.51,0-13.41-2.16-17.69-6.47-4.28-4.31-6.42-10.32-6.42-18.03,0-5.03,1.01-9.51,3.04-13.43,2.03-3.92,4.79-6.97,8.29-9.16,3.49-2.19,7.46-3.28,11.91-3.28,6.67,0,11.81,2.32,15.44,6.96h0c6.55,8.48.49,21.29-10.21,20.78-2.7-.13-6.27-.88-10.38-.88-3.85,0-10.73.88-10.73.88.2,5.23,1.78,9.21,4.75,11.96,2.98,2.74,7.14,4.12,12.5,4.12,2.62,0,5.13-.57,7.55-1.72,2.42-1.14,4.47-2.92,6.17-5.34l4.51,4.12c-4.38,6.34-10.62,9.51-18.72,9.51Zm-.78-44.6c-3.01,0-5.64.72-7.89,2.16-2.26,1.44-4.07,3.38-5.44,5.83s-2.22,5.18-2.55,8.19c0,0,6.23-.88,10.64-.88s7.09.74,9.6.88c6.42.37,9.71-7.72,5.25-12.35h0c-2.48-2.55-5.68-3.82-9.6-3.82Z"/>
        <path class="cls-2" d="m854.9,95.05c-.65-.2-1.31-.33-1.96-.39s-1.37-.1-2.16-.1c-5.69,0-9.84,3.35-12.45,10.05-2.62,6.7-3.92,17.5-3.92,32.4h-7.06v-31.27l-.1-17.45h7.16l-.49,17.35c1.57-6.6,3.92-11.29,7.06-14.07,3.14-2.78,6.5-4.17,10.1-4.17,1.05,0,1.98.05,2.79.15.82.1,1.52.28,2.11.54l-1.08,6.96Z"/>
      </g>
    </g>
  </g>
  <g>
    <path class="cls-2" d="m582.89,187.88c-.38,0-.68-.13-.91-.38-.23-.25-.34-.54-.34-.88s.12-.63.36-.88c.24-.25.54-.38.89-.38.4,0,.71.13.93.38.22.25.33.54.33.88s-.11.63-.33.88c-.22.25-.53.38-.93.38Zm.82,3.92v15.53h-1.69v-15.53h1.69Z"/>
    <path class="cls-2" d="m601.49,184.12v23.21h-1.76l.13-4.2c-.54,1.34-1.33,2.42-2.37,3.23-1.04.82-2.21,1.22-3.53,1.22s-2.36-.31-3.25-.93c-.89-.62-1.56-1.47-2.02-2.57s-.69-2.36-.69-3.78c0-1.74.3-3.26.89-4.58.6-1.32,1.44-2.35,2.54-3.09,1.1-.74,2.38-1.11,3.84-1.11.96,0,1.85.22,2.67.67.82.45,1.43,1.1,1.85,1.96l-.03-2.35v-7.69h1.73Zm-6.18,8.97c-1.67,0-3.01.64-4.02,1.93-1,1.29-1.51,3-1.51,5.13,0,1.82.39,3.25,1.16,4.28s1.84,1.55,3.2,1.55c1.09,0,2.06-.33,2.92-.99.86-.66,1.53-1.57,2.01-2.73.48-1.16.72-2.47.72-3.94,0-1.63-.4-2.91-1.19-3.84-.8-.93-1.89-1.4-3.29-1.4Z"/>
    <path class="cls-2" d="m607.33,187.88c-.38,0-.68-.13-.91-.38-.23-.25-.34-.54-.34-.88s.12-.63.36-.88c.24-.25.54-.38.89-.38.4,0,.71.13.93.38.22.25.33.54.33.88s-.11.63-.33.88c-.22.25-.53.38-.93.38Zm.82,3.92v15.53h-1.69v-15.53h1.69Z"/>
    <path class="cls-2" d="m619.68,191.52c2.07,0,3.71.7,4.91,2.09,1.2,1.39,1.8,3.28,1.8,5.66,0,1.57-.3,2.98-.91,4.23-.61,1.26-1.44,2.25-2.51,2.98-1.07.73-2.29,1.1-3.67,1.1-2.15,0-3.84-.7-5.05-2.09-1.21-1.39-1.82-3.29-1.82-5.69,0-1.57.3-2.98.89-4.23.6-1.26,1.44-2.24,2.52-2.96,1.09-.72,2.36-1.08,3.83-1.08Zm-.38,14.46c1.05,0,1.97-.28,2.76-.85.79-.56,1.42-1.35,1.87-2.37.45-1.01.67-2.18.67-3.5,0-1.99-.43-3.51-1.3-4.58-.87-1.07-2.07-1.6-3.59-1.6-1.11,0-2.08.29-2.9.86-.83.58-1.46,1.37-1.91,2.38-.45,1.01-.67,2.17-.67,3.47,0,1.99.44,3.51,1.33,4.58.89,1.07,2.14,1.6,3.75,1.6Z"/>
    <path class="cls-2" d="m630.7,207.33v-15.53h1.72l-.19,6.12c.54-2.2,1.36-3.81,2.46-4.85s2.36-1.55,3.78-1.55,2.51.45,3.32,1.35c.82.9,1.28,2.29,1.38,4.17.56-1.86,1.38-3.25,2.46-4.16,1.08-.91,2.29-1.36,3.65-1.36,1.53,0,2.7.53,3.51,1.6.82,1.07,1.21,2.61,1.19,4.64l-.06,9.57h-1.69l.06-9.32c.02-3.26-1.11-4.89-3.39-4.89-.8,0-1.54.24-2.23.72-.69.48-1.3,1.27-1.84,2.35-.53,1.09-.95,2.54-1.24,4.36-.29,1.82-.44,4.08-.44,6.78h-1.69v-9.32c0-1.67-.27-2.91-.8-3.7-.53-.79-1.39-1.19-2.56-1.19-.8,0-1.54.24-2.24.72-.7.48-1.31,1.27-1.84,2.35-.52,1.09-.94,2.54-1.24,4.36-.3,1.82-.46,4.08-.46,6.78h-1.66Z"/>
    <path class="cls-2" d="m671.63,191.8v15.53h-1.76l.13-4.2c-.54,1.34-1.33,2.42-2.37,3.23-1.04.82-2.21,1.22-3.53,1.22s-2.36-.31-3.25-.93c-.89-.62-1.56-1.47-2.02-2.57s-.69-2.36-.69-3.78c0-1.74.3-3.26.89-4.58.6-1.32,1.44-2.35,2.54-3.09,1.1-.74,2.38-1.11,3.84-1.11,1.07,0,2.01.26,2.82.77.82.51,1.4,1.17,1.76,1.96l.31-2.45h1.32Zm-6.18,1.29c-1.67,0-3.01.64-4.02,1.93-1,1.29-1.51,3-1.51,5.13,0,1.82.39,3.25,1.16,4.28s1.84,1.55,3.2,1.55c1.09,0,2.06-.33,2.92-.99.86-.66,1.53-1.57,2.01-2.73.48-1.16.72-2.47.72-3.94,0-1.63-.4-2.91-1.19-3.84-.8-.93-1.89-1.4-3.29-1.4Z"/>
    <path class="cls-2" d="m681.42,207.58c-1.9,0-3.37-.4-4.39-1.19-1.02-.79-1.61-1.94-1.76-3.45l1.57-.35c.15,1.21.59,2.11,1.32,2.68.73.58,1.82.86,3.26.86,1.21,0,2.14-.27,2.79-.82.65-.54.97-1.23.97-2.07s-.32-1.37-.96-1.73c-.64-.36-1.63-.67-2.96-.94-1.59-.33-2.83-.81-3.73-1.43-.9-.62-1.35-1.64-1.35-3.06,0-.86.23-1.63.69-2.31.46-.68,1.09-1.22,1.88-1.63.79-.41,1.71-.61,2.76-.61,1.38,0,2.51.34,3.4,1.02.89.68,1.44,1.65,1.65,2.9l-1.51.38c-.31-1.9-1.5-2.85-3.54-2.85-1.09,0-1.97.28-2.64.85-.67.56-1,1.31-1,2.23,0,.86.3,1.51.89,1.94s1.58.81,2.96,1.1c1.13.25,2.08.53,2.84.83.76.3,1.34.71,1.73,1.21.39.5.58,1.18.58,2.04.02.82-.2,1.56-.66,2.23-.46.67-1.1,1.2-1.93,1.58-.83.39-1.78.58-2.87.58Z"/>
    <path class="cls-2" d="m704.32,207.58c-2.34,0-4.17-.69-5.49-2.07-1.32-1.38-1.98-3.29-1.98-5.74,0-1.61.31-3.03.94-4.27.63-1.23,1.48-2.21,2.57-2.92,1.09-.71,2.33-1.07,3.73-1.07s2.5.31,3.48.94c.98.63,1.71,1.58,2.18,2.85.47,1.28.6,2.91.39,4.89h-11.54c.04,1.88.56,3.31,1.57,4.3,1,.98,2.42,1.47,4.23,1.47.94,0,1.81-.19,2.62-.56.8-.38,1.48-.98,2.02-1.82l1.16.97c-.63.98-1.44,1.73-2.43,2.24-.99.51-2.15.77-3.47.77Zm-.19-14.62c-1.03,0-1.93.26-2.73.77-.8.51-1.43,1.21-1.91,2.09-.48.88-.76,1.86-.85,2.95h9.98c.13-2.07-.25-3.56-1.13-4.45-.88-.9-2-1.35-3.36-1.35Z"/>
    <path class="cls-2" d="m726.75,207.58c-1.69,0-2.95-.46-3.78-1.38-.83-.92-1.23-2.14-1.21-3.67l.09-9.25h-2.79v-1.47h2.82l.03-3.26h1.69l-.03,3.26h5.55v1.47h-5.55l-.09,9.13c-.02,1.11.24,1.99.78,2.64.54.65,1.39.97,2.54.97.5,0,.96-.07,1.38-.2.42-.14.85-.37,1.29-.71l.6,1.35c-.4.4-.89.69-1.49.86-.6.18-1.21.27-1.84.27Z"/>
    <path class="cls-2" d="m740.67,193.44c-.23-.06-.44-.11-.64-.14-.2-.03-.42-.05-.67-.05-1.82,0-3.16,1.13-4.03,3.39-.87,2.26-1.3,5.82-1.3,10.7h-1.66v-9.94l-.03-5.58h1.72l-.13,6.12c.48-2.34,1.22-3.99,2.23-4.96,1-.96,2.1-1.44,3.29-1.44.27,0,.54.02.8.05.26.03.48.09.64.17l-.22,1.69Z"/>
    <path class="cls-2" d="m755.64,191.8v15.53h-1.76l.13-4.2c-.54,1.34-1.33,2.42-2.37,3.23-1.04.82-2.21,1.22-3.53,1.22s-2.36-.31-3.25-.93c-.89-.62-1.56-1.47-2.02-2.57s-.69-2.36-.69-3.78c0-1.74.3-3.26.89-4.58.6-1.32,1.44-2.35,2.54-3.09,1.1-.74,2.38-1.11,3.84-1.11,1.07,0,2.01.26,2.82.77.82.51,1.4,1.17,1.76,1.96l.31-2.45h1.32Zm-6.18,1.29c-1.67,0-3.01.64-4.02,1.93-1,1.29-1.51,3-1.51,5.13,0,1.82.39,3.25,1.16,4.28s1.84,1.55,3.2,1.55c1.09,0,2.06-.33,2.92-.99.86-.66,1.53-1.57,2.01-2.73.48-1.16.72-2.47.72-3.94,0-1.63-.4-2.91-1.19-3.84-.8-.93-1.89-1.4-3.29-1.4Z"/>
    <path class="cls-2" d="m773.42,184.12v23.21h-1.76l.13-4.2c-.54,1.34-1.33,2.42-2.37,3.23-1.04.82-2.21,1.22-3.53,1.22s-2.36-.31-3.25-.93c-.89-.62-1.56-1.47-2.02-2.57s-.69-2.36-.69-3.78c0-1.74.3-3.26.89-4.58.6-1.32,1.44-2.35,2.54-3.09,1.1-.74,2.38-1.11,3.84-1.11.96,0,1.85.22,2.67.67.82.45,1.43,1.1,1.85,1.96l-.03-2.35v-7.69h1.73Zm-6.18,8.97c-1.67,0-3.01.64-4.02,1.93-1,1.29-1.51,3-1.51,5.13,0,1.82.39,3.25,1.16,4.28s1.84,1.55,3.2,1.55c1.09,0,2.06-.33,2.92-.99.86-.66,1.53-1.57,2.01-2.73.48-1.16.72-2.47.72-3.94,0-1.63-.4-2.91-1.19-3.84-.8-.93-1.89-1.4-3.29-1.4Z"/>
    <path class="cls-2" d="m782.93,207.58c-1.51,0-2.67-.52-3.5-1.55-.83-1.04-1.23-2.49-1.21-4.38l.09-9.85h1.72l-.13,9.57c0,1.49.27,2.62.8,3.4.53.78,1.4,1.18,2.59,1.18,1.11,0,2.1-.44,2.96-1.33.87-.89,1.55-2.36,2.04-4.42.49-2.06.74-4.86.74-8.39h1.63v15.53h-1.73l.16-5.87c-.54,2.13-1.36,3.69-2.45,4.66s-2.33,1.46-3.73,1.46Z"/>
    <path class="cls-2" d="m802.06,207.58c-2.24,0-3.98-.68-5.22-2.05-1.24-1.37-1.87-3.27-1.87-5.69,0-1.61.31-3.04.93-4.3.62-1.26,1.48-2.24,2.59-2.95,1.11-.71,2.4-1.07,3.89-1.07,1.28,0,2.36.27,3.26.82.9.54,1.61,1.27,2.13,2.16l-1.32,1c-.9-1.59-2.28-2.38-4.14-2.38-1.11,0-2.08.28-2.92.85-.84.56-1.49,1.35-1.94,2.37-.46,1.01-.69,2.18-.69,3.5,0,1.99.46,3.51,1.38,4.56.92,1.06,2.25,1.58,3.98,1.58.9,0,1.72-.19,2.48-.56s1.38-.98,1.88-1.82l1.29.97c-1.19,2.01-3.1,3.01-5.71,3.01Zm-.94,6.74c-.63,0-1.16-.06-1.6-.19s-.87-.3-1.29-.53l.53-1.07c.38.21.75.37,1.11.47.37.1.77.16,1.21.16.54,0,.99-.14,1.35-.41s.53-.65.53-1.13c0-.88-.65-1.32-1.95-1.32h-1.13l1.79-3.54h1.44l-1.22,2.45c.77.1,1.39.36,1.85.77.46.41.69.95.69,1.62,0,.82-.32,1.47-.97,1.98-.65.5-1.43.75-2.35.75Z"/>
    <path class="cls-2" d="m816.81,191.52c2.07,0,3.71.7,4.91,2.09,1.2,1.39,1.8,3.28,1.8,5.66,0,1.57-.3,2.98-.91,4.23-.61,1.26-1.44,2.25-2.51,2.98-1.07.73-2.29,1.1-3.67,1.1-2.15,0-3.84-.7-5.05-2.09-1.21-1.39-1.82-3.29-1.82-5.69,0-1.57.3-2.98.89-4.23.6-1.26,1.44-2.24,2.52-2.96,1.09-.72,2.36-1.08,3.83-1.08Zm2.32-2.04c-.38,0-.8-.1-1.27-.31-.47-.21-.94-.44-1.41-.71-.47-.26-.93-.49-1.36-.69-.44-.2-.83-.3-1.16-.3-.46,0-.84.18-1.14.53-.3.36-.53.83-.67,1.41l-.88-.53c.15-.86.46-1.54.94-2.04.48-.5,1.09-.75,1.82-.75.38,0,.79.1,1.26.31.46.21.93.44,1.41.71.48.26.94.5,1.38.71.44.21.83.31,1.16.31.46,0,.84-.18,1.14-.55.3-.37.53-.85.67-1.46l.88.56c-.15.88-.46,1.56-.94,2.05-.48.49-1.09.74-1.82.74Zm-2.7,16.5c1.05,0,1.97-.28,2.76-.85.79-.56,1.42-1.35,1.87-2.37.45-1.01.67-2.18.67-3.5,0-1.99-.43-3.51-1.3-4.58-.87-1.07-2.07-1.6-3.59-1.6-1.11,0-2.08.29-2.9.86-.83.58-1.46,1.37-1.91,2.38-.45,1.01-.67,2.17-.67,3.47,0,1.99.44,3.51,1.33,4.58.89,1.07,2.14,1.6,3.75,1.6Z"/>
    <path class="cls-2" d="m834.62,207.58c-2.34,0-4.17-.69-5.49-2.07-1.32-1.38-1.98-3.29-1.98-5.74,0-1.61.31-3.03.94-4.27.63-1.23,1.48-2.21,2.57-2.92,1.09-.71,2.33-1.07,3.73-1.07s2.5.31,3.48.94c.98.63,1.71,1.58,2.18,2.85.47,1.28.6,2.91.39,4.89h-11.54c.04,1.88.56,3.31,1.57,4.3,1,.98,2.42,1.47,4.23,1.47.94,0,1.81-.19,2.62-.56.8-.38,1.48-.98,2.02-1.82l1.16.97c-.63.98-1.44,1.73-2.43,2.24-.99.51-2.15.77-3.47.77Zm-.19-14.62c-1.03,0-1.93.26-2.73.77-.8.51-1.43,1.21-1.91,2.09-.48.88-.76,1.86-.85,2.95h9.98c.13-2.07-.25-3.56-1.13-4.45-.88-.9-2-1.35-3.36-1.35Z"/>
    <path class="cls-2" d="m849.37,207.58c-1.9,0-3.37-.4-4.39-1.19-1.02-.79-1.61-1.94-1.76-3.45l1.57-.35c.15,1.21.59,2.11,1.32,2.68.73.58,1.82.86,3.26.86,1.21,0,2.14-.27,2.79-.82.65-.54.97-1.23.97-2.07s-.32-1.37-.96-1.73c-.64-.36-1.63-.67-2.96-.94-1.59-.33-2.83-.81-3.73-1.43-.9-.62-1.35-1.64-1.35-3.06,0-.86.23-1.63.69-2.31.46-.68,1.09-1.22,1.88-1.63.79-.41,1.71-.61,2.76-.61,1.38,0,2.51.34,3.4,1.02.89.68,1.44,1.65,1.65,2.9l-1.51.38c-.31-1.9-1.5-2.85-3.54-2.85-1.09,0-1.97.28-2.64.85-.67.56-1,1.31-1,2.23,0,.86.3,1.51.89,1.94s1.58.81,2.96,1.1c1.13.25,2.08.53,2.84.83.76.3,1.34.71,1.73,1.21.39.5.58,1.18.58,2.04.02.82-.2,1.56-.66,2.23-.46.67-1.1,1.2-1.93,1.58-.83.39-1.78.58-2.87.58Z"/>
  </g>
</svg>