<?xml version="1.0" encoding="UTF-8"?>
<svg id="horizontais" xmlns="http://www.w3.org/2000/svg" viewBox="0 0 890.22 248.29">
  <defs>
    <style>
      .cls-1 {
        fill: #6d6d6d;
      }

      .cls-1, .cls-2 {
        stroke-width: 0px;
      }

      .cls-2 {
        fill: #9791b7;
      }
    </style>
  </defs>
  <g>
    <path class="cls-2" d="m470.03,181.93c18.85,6.3,46.47-.48,51.7-21.94,3.37-14.54-4.98-28.17-18.54-33.59-9.63-4.13-20.28-4.22-30.5-3.2-5.96.55-11.83,1.87-17.49,3.81,1.63-3.08,3.45-5.71,5.87-7.98,2.08-2.08,4.81-4.58,7.71-6.67,6.88,5.51,20.07,3.16,18.21-7.64-.79-3.82-4.82-6.1-8.47-6.02-1.95.07-3.85.41-5.67.97.03-.98.13-1.98.27-2.96.17-.72.38-1.46.6-2.21,16.52-.36,37.66-2.4,48.83-10.52,6.02-4.23,6.65-13.34,2.12-18.9-4.48-5.56-11.93-7.23-18.73-7.34-19.22.21-33.71,14.16-39.77,31.52-.85.02-1.7.04-2.54.06-14.16.37-28.86,2.73-40.34,11.87-11,8.99-16.05,28.62-2.13,37.32,0,0,.52-.79.52-.79-8.8-6.41-8.31-17.95-2.72-26.39,9.12-14.53,28.76-16.85,44.53-16.78.35,0,.72,0,1.08.01-.7,3.08-.94,6.37-.39,9.46-4.29,2.95-8.15,6.72-11.58,10.22-4.45,4.97-7.63,11.52-9.59,18.07-11.66,6.34-23.96,16.09-25.3,30.26-1,10.79,5.91,20.55,15.56,24.84,3.12,1.49,6.38,2.61,9.81,3.24,0,0,.15-.94.15-.94-12.44-3.26-23.9-13.25-21.9-26.88,1.51-10.84,10.75-18.53,20.19-23.84-2.48,18.98,9.75,37.3,28.5,42.93Zm9.13-99.83c5.69-9.63,15.79-16.01,26.87-16.4,5.84-.1,14.53,1.61,14.34,8.69-.16,2.09-.62,2.66-2.19,4.11-1.71,1.45-4.27,2.78-7.02,3.84-11.19,3.99-23.36,5.75-35.42,6.51,1-2.37,2.16-4.67,3.43-6.75Zm-5.82,47.28c9-.59,19.16-.21,27.03,3.51,4.8,2.31,9.4,5.58,11.85,10.47,4.88,9.19,2.08,21.02-6.91,26.53-27.57,16.73-63-5.64-53.15-35.88,6.8-2.59,13.89-4.21,21.17-4.63Z"/>
    <path class="cls-2" d="m457.56,53.2c13.5-3.91,28.15-3.92,41.88-.08-20.26-7.39-43.98-4.96-62.35,6.43-31.76,18.25-45.3,61.53-28.89,94.44-16.69-40.55,6.82-89.58,49.36-100.8Z"/>
    <path class="cls-2" d="m536.92,80.21c27.86,39.59,9.71,97.66-36.19,113.45-14.43,5.25-30.42,5.96-45.33,2.09,14.7,4.97,31.13,4.79,46.01-.13,47.6-15.13,66.86-76.2,35.51-115.41Z"/>
  </g>
  <g>
    <g>
      <path class="cls-1" d="m60.26,152.45c-5.54,0-9.71-1.48-12.51-4.45s-4.17-6.92-4.11-11.88l.29-26.98h-8.6v-6.06h8.7l.1-10.17h7.13l-.1,10.17h16.91v6.06h-17.01l-.29,26.49c0,3.13.8,5.64,2.39,7.53,1.6,1.89,4.09,2.84,7.48,2.84,1.5,0,2.9-.18,4.21-.54,1.3-.36,2.67-1.09,4.11-2.2l2.35,5.67c-1.44,1.24-3.13,2.14-5.09,2.69-1.95.55-3.95.83-5.96.83Z"/>
      <path class="cls-1" d="m97.69,152.45c-7.49,0-13.38-2.15-17.64-6.45-4.27-4.3-6.4-10.29-6.4-17.99,0-5.02,1.01-9.48,3.03-13.39,2.02-3.91,4.77-6.96,8.26-9.14,3.48-2.18,7.44-3.27,11.88-3.27,6.65,0,11.78,2.31,15.4,6.94h0c6.53,8.45.49,21.23-10.18,20.72-2.69-.13-6.26-.88-10.35-.88-3.84,0-10.7.88-10.7.88.19,5.22,1.78,9.19,4.74,11.93,2.97,2.74,7.12,4.1,12.46,4.1,2.61,0,5.12-.57,7.53-1.71,2.41-1.14,4.46-2.92,6.16-5.33l4.5,4.1c-4.37,6.32-10.59,9.48-18.67,9.48Zm-.78-44.48c-3,0-5.62.72-7.87,2.15-2.25,1.43-4.06,3.37-5.43,5.82-1.37,2.44-2.21,5.17-2.54,8.16,0,0,6.21-.88,10.61-.88s7.07.74,9.57.88c6.4.37,9.69-7.7,5.24-12.32h0c-2.47-2.54-5.67-3.81-9.58-3.81Z"/>
      <path class="cls-1" d="m168.76,103.08v48.59h-7.23l.29-11.44c-1.83,3.78-4.27,6.76-7.33,8.95-3.07,2.18-6.55,3.27-10.46,3.27s-7.56-.96-10.36-2.88c-2.8-1.92-4.95-4.6-6.45-8.02-1.5-3.42-2.25-7.38-2.25-11.88,0-5.41.98-10.18,2.93-14.32,1.95-4.14,4.69-7.37,8.21-9.68,3.52-2.31,7.59-3.47,12.22-3.47,3.26,0,6.13.75,8.6,2.25,2.48,1.5,4.3,3.42,5.47,5.77l.98-7.14h5.37Zm-20.23,5.57c-4.89,0-8.8,1.86-11.73,5.57-2.93,3.72-4.4,8.67-4.4,14.86,0,5.28,1.13,9.4,3.37,12.37,2.25,2.97,5.33,4.45,9.24,4.45,3.19,0,6.06-.95,8.6-2.84,2.54-1.89,4.53-4.5,5.96-7.82,1.43-3.32,2.14-7.14,2.14-11.44,0-4.69-1.17-8.39-3.52-11.1-2.34-2.7-5.57-4.06-9.67-4.06Z"/>
      <path class="cls-1" d="m203.08,152.45c-7.1,0-12.68-2.14-16.72-6.4-4.04-4.27-6.06-10.22-6.06-17.84,0-5.15,1.01-9.68,3.03-13.59,2.02-3.91,4.82-6.96,8.41-9.14s7.76-3.27,12.51-3.27c7.82,0,13.56,3.13,17.21,9.38l-5.48,4.11c-2.6-4.63-6.58-6.94-11.92-6.94-4.89,0-8.81,1.78-11.78,5.33-2.97,3.55-4.45,8.26-4.45,14.13s1.34,10.1,4.01,13.1c2.67,3,6.51,4.5,11.53,4.5,2.67,0,5.12-.55,7.33-1.66s4.04-2.87,5.47-5.28l5.28,4.11c-3.91,6.32-10.04,9.48-18.38,9.48Z"/>
      <path class="cls-1" d="m229.08,151.67v-72.34h7.13l.1,23.76-.59,16.62c1.63-5.67,4.16-10,7.58-13,3.42-3,7.45-4.5,12.07-4.5,4.95,0,8.76,1.73,11.44,5.18,2.67,3.46,4.01,8.44,4.01,14.96l-.2,29.33h-7.13l.19-28.45c0-4.75-.8-8.34-2.39-10.75-1.6-2.41-4.16-3.61-7.68-3.61-3.32,0-6.3,1.32-8.94,3.96-2.64,2.64-4.73,7.09-6.26,13.34-1.53,6.26-2.3,14.76-2.3,25.51h-7.04Z"/>
      <path class="cls-1" d="m305.81,152.45c-7.49,0-13.38-2.15-17.64-6.45-4.27-4.3-6.4-10.29-6.4-17.99,0-5.02,1.01-9.48,3.03-13.39,2.02-3.91,4.77-6.96,8.26-9.14,3.48-2.18,7.44-3.27,11.88-3.27,6.65,0,11.78,2.31,15.4,6.94h0c6.53,8.45.49,21.23-10.18,20.72-2.69-.13-6.26-.88-10.35-.88-3.84,0-10.7.88-10.7.88.19,5.22,1.78,9.19,4.74,11.93,2.97,2.74,7.12,4.1,12.46,4.1,2.61,0,5.12-.57,7.53-1.71,2.41-1.14,4.46-2.92,6.16-5.33l4.5,4.1c-4.37,6.32-10.59,9.48-18.67,9.48Zm-.78-44.48c-3,0-5.62.72-7.87,2.15-2.25,1.43-4.06,3.37-5.43,5.82s-2.21,5.17-2.54,8.16c0,0,6.21-.88,10.61-.88s7.07.74,9.57.88c6.4.37,9.69-7.7,5.24-12.32h0c-2.47-2.54-5.67-3.81-9.58-3.81Z"/>
      <path class="cls-1" d="m362.81,109.83c-.66-.2-1.3-.32-1.96-.39-.65-.06-1.37-.1-2.15-.1-5.66,0-9.81,3.34-12.41,10.02-2.61,6.68-3.91,17.45-3.91,32.31h-7.04v-31.19l-.1-17.4h7.13l-.49,17.3c1.57-6.58,3.91-11.26,7.04-14.03,3.13-2.77,6.49-4.15,10.07-4.15,1.04,0,1.97.05,2.79.15.81.1,1.51.28,2.1.54l-1.07,6.94Z"/>
    </g>
    <g>
      <path class="cls-1" d="m658.5,152.45c-6.06,0-10.75-1.25-14.08-3.77-3.33-2.51-5.25-6.08-5.77-10.7l6.26-1.47c.45,3.46,1.77,6,3.96,7.63s5.39,2.44,9.63,2.44c3.58,0,6.3-.73,8.16-2.2,1.86-1.47,2.78-3.37,2.78-5.72,0-2.21-.94-3.86-2.83-4.94-1.89-1.07-4.86-2-8.9-2.79-3.39-.65-6.29-1.48-8.7-2.49-2.41-1.01-4.27-2.43-5.57-4.25-1.31-1.82-1.96-4.27-1.96-7.33,0-2.74.75-5.21,2.25-7.43,1.5-2.21,3.57-3.96,6.21-5.23,2.64-1.27,5.62-1.91,8.94-1.91,4.56,0,8.29,1.09,11.2,3.27,2.9,2.18,4.67,5.2,5.33,9.04l-6.06,1.56c-.98-5.34-4.5-8.02-10.56-8.02-3.13,0-5.62.77-7.48,2.3-1.86,1.53-2.78,3.6-2.78,6.21,0,2.15.81,3.86,2.44,5.13,1.63,1.27,4.56,2.36,8.8,3.28,3.45.72,6.42,1.55,8.89,2.49,2.48.95,4.38,2.23,5.72,3.86,1.34,1.63,2.04,3.88,2.1,6.74,0,2.74-.75,5.18-2.25,7.33-1.5,2.15-3.6,3.85-6.31,5.08-2.7,1.24-5.85,1.86-9.43,1.86Z"/>
      <path class="cls-1" d="m757.82,107.38c-2.67-3.45-6.49-5.18-11.44-5.18-4.63,0-8.65,1.5-12.07,4.5-3.42,3-5.95,7.33-7.58,13l.58-16.62-.1-23.76h-7.14v66.67h-16.13c-3.39,0-5.88-.94-7.48-2.83s-2.39-4.4-2.39-7.53l.29-26.49h17.01v-6.06h-16.91l.1-10.17h-7.14l-.1,10.17h-8.7v6.06h8.6l-.29,26.98c-.06,4.95,1.31,8.91,4.11,11.88,2.8,2.97,6.97,4.45,12.51,4.45h23.56c0-10.75.77-20.04,2.3-26.3,1.53-6.26,3.62-10.71,6.26-13.34,2.64-2.64,5.62-3.96,8.95-3.96,3.52,0,6.08,1.21,7.67,3.62,1.6,2.41,2.39,6,2.39,10.75l-.19,45.75h7.14l.19-46.63c0-6.52-1.34-11.5-4.01-14.96Z"/>
      <path class="cls-1" d="m796.82,152.45c-7.49,0-13.38-2.15-17.64-6.45-4.27-4.3-6.4-10.3-6.4-17.99,0-5.02,1.01-9.48,3.03-13.39,2.02-3.91,4.77-6.96,8.26-9.14,3.48-2.18,7.44-3.27,11.88-3.27,6.65,0,11.78,2.31,15.4,6.94h0c6.53,8.45.49,21.23-10.18,20.72-2.69-.13-6.26-.88-10.35-.88-3.84,0-10.7.88-10.7.88.19,5.22,1.78,9.19,4.74,11.93,2.97,2.74,7.12,4.11,12.46,4.11,2.61,0,5.12-.57,7.53-1.71,2.41-1.14,4.46-2.92,6.16-5.33l4.5,4.11c-4.37,6.32-10.59,9.48-18.67,9.48Zm-.78-44.48c-3,0-5.62.72-7.87,2.15-2.25,1.43-4.06,3.37-5.43,5.82s-2.21,5.17-2.54,8.16c0,0,6.21-.88,10.61-.88s7.07.74,9.57.88c6.4.37,9.69-7.7,5.24-12.32h0c-2.47-2.54-5.67-3.81-9.58-3.81Z"/>
      <path class="cls-1" d="m613.43,152.45c-7.49,0-13.38-2.15-17.64-6.45-4.27-4.3-6.4-10.3-6.4-17.99,0-5.02,1.01-9.48,3.03-13.39s4.77-6.96,8.26-9.14c3.48-2.18,7.44-3.27,11.88-3.27,6.65,0,11.78,2.31,15.4,6.94h0c6.53,8.45.49,21.23-10.18,20.72-2.69-.13-6.26-.88-10.35-.88-3.84,0-10.7.88-10.7.88.19,5.22,1.78,9.19,4.74,11.93,2.97,2.74,7.12,4.11,12.46,4.11,2.61,0,5.12-.57,7.53-1.71,2.41-1.14,4.46-2.92,6.16-5.33l4.5,4.11c-4.37,6.32-10.59,9.48-18.67,9.48Zm-.78-44.48c-3,0-5.62.72-7.87,2.15-2.25,1.43-4.06,3.37-5.43,5.82s-2.21,5.17-2.54,8.16c0,0,6.21-.88,10.61-.88s7.07.74,9.57.88c6.4.37,9.69-7.7,5.24-12.32h0c-2.47-2.54-5.67-3.81-9.58-3.81Z"/>
      <path class="cls-1" d="m853.82,109.83c-.65-.19-1.3-.32-1.96-.39s-1.37-.1-2.15-.1c-5.67,0-9.81,3.34-12.41,10.02-2.61,6.68-3.91,17.45-3.91,32.31h-7.04v-31.19l-.1-17.4h7.14l-.49,17.3c1.56-6.58,3.91-11.26,7.04-14.03,3.13-2.77,6.48-4.15,10.07-4.15,1.04,0,1.97.05,2.78.15.82.1,1.52.28,2.1.54l-1.08,6.94Z"/>
    </g>
  </g>
</svg>